<?xml version="1.0" encoding="UTF-8" standalone="no"?>
<!-- Created with Inkscape (http://www.inkscape.org/) -->

<!-- <svg version="1.1" id="Layer_1" xmlns="http://www.w3.org/2000/svg" xmlns:xlink="http://www.w3.org/1999/xlink" x="0px" y="0px"
     width="1340px" height="1333px" viewBox="0 0 1340 1333" enable-background="new 0 0 340 333" xml:space="preserve"> -->

<svg version="1.1" xmlns="http://www.w3.org/2000/svg" xmlns:xlink="http://www.w3.org/1999/xlink" xml:space="preserve">
    <path
       class="path" fill-opacity="0" fill="#FFFFFF" stroke="#000000" stroke-width="4" stroke-miterlimit="10" 
       d="m -0.28348215,126.15476 c 1.92137895,0 3.84275795,0 5.76413695,0 0.440972,0 0.8819443,0 1.3229166,0 0.125992,0 0.252957,0.0156 0.3779761,0 0.1288669,-0.0161 0.2489009,-0.0801 0.3779763,-0.0945 0.1565267,-0.0174 0.3149801,0 0.4724702,0 0.5039683,0 1.0079365,0 1.5119048,0 0.1259919,0 0.2519841,0 0.3779761,0 0.094494,0 0.1899381,0.0134 0.2834821,0 0.128564,-0.0184 0.24911,-0.0784 0.377976,-0.0945 0.125019,-0.0156 0.251984,0 0.377976,0 0.125992,0 0.251984,0 0.377977,0 0.125992,0 0.251984,0 0.377976,0 0.15749,0 0.315943,-0.0174 0.47247,0 0.129075,0.0143 0.248901,0.0801 0.377976,0.0945 0.156527,0.0174 0.31498,0 0.47247,0 0.15749,0 0.314981,0 0.472471,0 0.598462,0 1.196924,0 1.795387,0 1.10243,0 2.204861,0 3.307291,0 0.31498,0 0.62996,0 0.944941,0 0.15749,0 0.315761,-0.0157 0.47247,0 0.159812,0.016 0.312658,0.0785 0.47247,0.0945 0.156709,0.0157 0.31498,0 0.47247,0 0.535467,0 1.070933,0 1.606399,0 0.15749,0 0.315329,-0.0105 0.47247,0 0.31585,0.0211 0.629091,0.0734 0.944941,0.0945 0.282854,0.0189 0.566964,0 0.850446,0 0.125992,0 0.252957,-0.0156 0.377976,0 0.128867,0.0161 0.24911,0.0784 0.377977,0.0945 0.125019,0.0156 0.251984,0 0.377976,0 0.125992,0 0.251984,0 0.377976,0 0.157491,0 0.315762,-0.0157 0.47247,0 0.159813,0.016 0.312843,0.0768 0.472472,0.0945 0.125219,0.0139 0.251983,0 0.377975,0 0.157491,0 0.314979,0 0.472469,0 0.125992,0 0.252958,-0.0156 0.377976,0 0.128868,0.0161 0.251984,0.063 0.377976,0.0945 0.283483,0 0.567944,-0.0236 0.850448,0 0.09926,0.008 0.184877,0.0804 0.283482,0.0945 0.249452,0.0356 0.505915,-0.0313 0.755952,0 0.128868,0.0161 0.248901,0.0802 0.377976,0.0945 0.156527,0.0174 0.314981,0 0.472471,0 0.188987,0 0.377976,0 0.566963,0 0.125992,0 0.252957,-0.0156 0.377978,0 0.128865,0.0161 0.249108,0.0784 0.377976,0.0945 0.125018,0.0156 0.251984,0 0.377976,0 0.346477,0 0.692957,0 1.039434,0 0.125992,0 0.252957,-0.0156 0.377976,0 0.128868,0.0161 0.249412,0.0761 0.377976,0.0945 0.09355,0.0134 0.188989,0 0.283482,0 0.220485,0 0.440973,0 0.661458,0 0.09449,0 0.189315,-0.008 0.283483,0 0.284242,0.0237 0.566206,0.0708 0.850447,0.0945 0.09417,0.008 0.188987,0 0.28348,0 0.251987,0 0.503971,0 0.755955,0 0.188986,0 0.379433,-0.0235 0.566962,0 0.06989,0.009 0.122171,0.0722 0.188989,0.0945 0.05474,0.0183 0.29609,0 0.377976,0 0.03735,0 0.432115,-0.0202 0.472472,0 0.03984,0.0199 0.05465,0.0746 0.09449,0.0945 0.02484,0.0124 0.328562,0 0.377976,0 0.0315,0 0.07222,0.0223 0.09449,0 0.02228,-0.0223 0,-0.063 0,-0.0945 0,-0.0229 0.003,-0.28044 0,-0.28348 -0.02228,-0.0223 -0.07222,0.0223 -0.09449,0 -0.02228,-0.0223 0.02228,-0.0722 0,-0.0945 -0.02228,-0.0223 -0.09449,0.0315 -0.09449,0 0,-0.0315 0.07222,0.0223 0.09449,0 0.02228,-0.0223 0.02228,-0.0722 0,-0.0945 -0.02228,-0.0223 -0.07222,0.0223 -0.09449,0 -0.04455,-0.0446 0.04454,-0.14444 0,-0.18899 -0.02228,-0.0223 -0.07222,0.0223 -0.0945,0 -0.04454,-0.0445 0.04455,-0.14444 0,-0.18899 -0.02228,-0.0223 -0.07222,0.0223 -0.09449,0 -0.04454,-0.0445 0.02817,-0.13264 0,-0.18898 -0.01992,-0.0399 -0.06299,-0.063 -0.09449,-0.0945 -0.0315,-0.0315 -0.063,-0.063 -0.09449,-0.0945 -0.0315,-0.0315 -0.07457,-0.0546 -0.0945,-0.0945 -0.01408,-0.0282 0.01408,-0.0663 0,-0.0945 -0.01992,-0.0398 -0.07457,-0.0546 -0.09449,-0.0945 -0.01408,-0.0282 0.01407,-0.0663 0,-0.0945 -0.01992,-0.0398 -0.07457,-0.0547 -0.09449,-0.0945 -0.01408,-0.0282 0.0099,-0.0646 0,-0.0945 -0.02228,-0.0668 -0.07222,-0.12217 -0.0945,-0.18898 -0.09376,-0.2813 0.22375,0.19388 -0.09449,-0.28349 -0.0927,-0.13904 -0.285279,-0.23893 -0.377976,-0.37797 -0.03907,-0.0586 -0.063,-0.12599 -0.09449,-0.18899 -0.063,-0.063 -0.135536,-0.11772 -0.188989,-0.18899 -0.04226,-0.0563 -0.05223,-0.13264 -0.09449,-0.18899 -0.05345,-0.0713 -0.135535,-0.11771 -0.188989,-0.18899 -0.04226,-0.0563 -0.05355,-0.13167 -0.09449,-0.18898 -0.117226,-0.16412 -0.26075,-0.30836 -0.377976,-0.47247 -0.04094,-0.0573 -0.05223,-0.13265 -0.09449,-0.18899 -0.05345,-0.0713 -0.135536,-0.11772 -0.188989,-0.18899 -0.125992,-0.18899 -0.251984,-0.37798 -0.377976,-0.56696 -0.063,-0.063 -0.133334,-0.11943 -0.18899,-0.18899 -0.07095,-0.0887 -0.125991,-0.18899 -0.188986,-0.28348 -0.188989,-0.28349 -0.377976,-0.56697 -0.566965,-0.85045 -0.125992,-0.18899 -0.247722,-0.38089 -0.377976,-0.56696 -0.753872,-1.07696 -0.231891,-0.30059 -0.661458,-0.94495 -0.063,-0.0945 -0.132644,-0.18487 -0.188989,-0.28348 -0.06989,-0.1223 -0.113361,-0.25913 -0.188987,-0.37797 -0.145471,-0.2286 -0.317087,-0.43949 -0.472472,-0.66146 -0.06513,-0.093 -0.138197,-0.18191 -0.188986,-0.28348 -0.04455,-0.0891 -0.05952,-0.19022 -0.0945,-0.28349 -0.08401,-0.22401 -0.243758,-0.6357 -0.377976,-0.85044 -0.08347,-0.13355 -0.213051,-0.23712 -0.283483,-0.37798 -0.05808,-0.11616 -0.03641,-0.26182 -0.09449,-0.37798 -0.07043,-0.14086 -0.206997,-0.2403 -0.283482,-0.37797 -0.08238,-0.14828 -0.125992,-0.31498 -0.188987,-0.47247 -0.150185,-0.37546 -0.188801,-0.50993 -0.377976,-0.85045 -0.162642,-0.29275 -0.404326,-0.65219 -0.566965,-0.94494 -0.06841,-0.12313 -0.120578,-0.25484 -0.188989,-0.37798 -0.08919,-0.16054 -0.201345,-0.30819 -0.283483,-0.47246 -0.07586,-0.15172 -0.11313,-0.32076 -0.188986,-0.47248 -0.164275,-0.32854 -0.388575,-0.62383 -0.566965,-0.94493 -0.06841,-0.12314 -0.120579,-0.25485 -0.188987,-0.37798 -0.0892,-0.16055 -0.201345,-0.3082 -0.283482,-0.47247 -0.07586,-0.15172 -0.106614,-0.3242 -0.18899,-0.47247 -0.07648,-0.13767 -0.196122,-0.24694 -0.283482,-0.37798 -0.814589,-1.22188 0.194635,0.25585 -0.472469,-0.94494 -0.07648,-0.13767 -0.188989,-0.25198 -0.283483,-0.37798 -0.09449,-0.15748 -0.195535,-0.31123 -0.283482,-0.47247 -0.10118,-0.18549 -0.182303,-0.38146 -0.283483,-0.56696 -0.26362,-0.4833 -0.586824,-0.93411 -0.850445,-1.41741 -0.731239,-1.3406 0.143034,0.1439 -0.566965,-1.03943 -0.283482,-0.47248 -0.566965,-0.94495 -0.850446,-1.41741 -0.09449,-0.15749 -0.188988,-0.31499 -0.283482,-0.47248 -0.09449,-0.15749 -0.201345,-0.30819 -0.283482,-0.47247 -0.07586,-0.15171 -0.113131,-0.32075 -0.188988,-0.47247 -0.08214,-0.16427 -0.201346,-0.30819 -0.283483,-0.47247 -0.151714,-0.30343 -0.237596,-0.6361 -0.377976,-0.94494 -0.08743,-0.192354 -0.196047,-0.374604 -0.283482,-0.566962 -0.14038,-0.308835 -0.226262,-0.641511 -0.377976,-0.944941 -0.241853,-0.483706 -0.608593,-0.933704 -0.850446,-1.41741 -0.07586,-0.151714 -0.101719,-0.327019 -0.188989,-0.472469 -0.103766,-0.172945 -0.262317,-0.307244 -0.377976,-0.472471 -0.105324,-0.150464 -0.188988,-0.314979 -0.283482,-0.472469 -0.182539,-0.304234 -0.384425,-0.64071 -0.566964,-0.944941 -0.188988,-0.314981 -0.377976,-0.62996 -0.566964,-0.944941 -0.09449,-0.157491 -0.201346,-0.308197 -0.283483,-0.472469 -0.07586,-0.151715 -0.11313,-0.320757 -0.188988,-0.472472 -0.08214,-0.164272 -0.201345,-0.308197 -0.283482,-0.472469 -0.07586,-0.151715 -0.106612,-0.324194 -0.188988,-0.472472 -0.07648,-0.13767 -0.206998,-0.240305 -0.283482,-0.377976 -0.08238,-0.148275 -0.120098,-0.317468 -0.188988,-0.472469 -0.05721,-0.128722 -0.131778,-0.249253 -0.188988,-0.377976 -0.06889,-0.155003 -0.113131,-0.320757 -0.188988,-0.472471 -0.18043,-0.36086 -0.335968,-0.486439 -0.472471,-0.850445 -0.0912,-0.243203 -0.106851,-0.509543 -0.188988,-0.755954 -0.05364,-0.160917 -0.135348,-0.311553 -0.188988,-0.47247 -0.04107,-0.123205 -0.05343,-0.254769 -0.09449,-0.377975 -0.05364,-0.160917 -0.135349,-0.311553 -0.188988,-0.472472 -0.08214,-0.246409 -0.125992,-0.503968 -0.188988,-0.755952 -0.0315,-0.125992 -0.04889,-0.256376 -0.09449,-0.377976 -0.04946,-0.131894 -0.131778,-0.249253 -0.188988,-0.377975 -0.06889,-0.155004 -0.120098,-0.317469 -0.188988,-0.472472 -0.05721,-0.128723 -0.139528,-0.246081 -0.188988,-0.377976 -0.0912,-0.2432 -0.08667,-0.517213 -0.188988,-0.755951 -0.04474,-0.104387 -0.144252,-0.179097 -0.188989,-0.283483 -0.05116,-0.119369 -0.063,-0.251984 -0.09449,-0.377976 -0.063,-0.251984 -0.125992,-0.503968 -0.188988,-0.755951 -0.0315,-0.125992 -0.05882,-0.253103 -0.09449,-0.377976 -0.07693,-0.269246 -0.146787,-0.366057 -0.188988,-0.661459 -0.01336,-0.09355 0.01336,-0.189939 0,-0.283482 0.0089,-0.239268 -0.15129,-0.435271 -0.188988,-0.661458 -0.01553,-0.09321 0.01553,-0.190276 0,-0.283483 -0.03275,-0.196501 -0.156238,-0.370464 -0.188988,-0.566965 -0.01553,-0.09321 0.01853,-0.190823 0,-0.283482 -0.01381,-0.06907 -0.08068,-0.119923 -0.09449,-0.188987 -0.03706,-0.18532 0.03706,-0.381648 0,-0.566965 -0.01381,-0.06906 -0.08068,-0.119925 -0.09449,-0.188989 -0.01853,-0.09266 0,-0.188987 0,-0.28348 0,-0.0945 0,-0.188989 0,-0.283483 0,-0.15749 -0.03089,-0.318039 0,-0.472471 0.01381,-0.06907 0.08068,-0.119923 0.09449,-0.188987 0.01853,-0.09266 -0.01853,-0.190823 0,-0.283483 0.02763,-0.138128 0.154824,-0.241318 0.188988,-0.377975 0.01528,-0.06112 -0.01992,-0.129226 0,-0.18899 0.182793,-0.54838 0.118499,-0.220993 0.377976,-0.566965 0.04226,-0.05634 0.063,-0.125992 0.09449,-0.188986 0.063,-0.063 0.135535,-0.117716 0.188988,-0.188989 0.04226,-0.05635 0.05223,-0.132641 0.09449,-0.188987 0.171118,-0.228158 0.24001,-0.192008 0.472471,-0.377976 0.139135,-0.11131 0.225188,-0.286305 0.377976,-0.377978 0.08541,-0.05125 0.198071,-0.04325 0.283482,-0.09449 0.07639,-0.04584 0.119421,-0.133334 0.188988,-0.188986 0.124933,-0.09995 0.689645,-0.439317 0.755952,-0.472472 0.08909,-0.04454 0.194393,-0.04995 0.283483,-0.09449 0.101578,-0.05079 0.181904,-0.1382 0.283482,-0.188989 0.08909,-0.04455 0.194392,-0.04995 0.283482,-0.09449 0.101578,-0.05079 0.181904,-0.1382 0.283482,-0.188989 0.151043,-0.07552 0.52017,-0.148619 0.661458,-0.188987 0.09577,-0.02736 0.188988,-0.063 0.283482,-0.09449 0.508557,-0.169521 0.994868,-0.343212 1.511905,-0.472472 0.125992,-0.0315 0.251984,-0.06299 0.377976,-0.09449 0.125993,-0.0315 0.24911,-0.07838 0.377977,-0.09449 1.157275,0 -0.278896,0.03984 0.661458,-0.0945 0.124726,-0.01781 0.25325,0.01781 0.377976,0 0.0986,-0.01408 0.185232,-0.07812 0.283482,-0.09449 0.09321,-0.01553 0.188988,0 0.283482,0 0.220486,0 0.440973,0 0.661459,0 0.220486,0 0.440972,0 0.661458,0 0.09449,0 0.189939,-0.01336 0.283483,0 0.128563,0.01836 0.249107,0.07838 0.377975,0.09449 0.125019,0.01564 0.252609,-0.01254 0.377976,0 0.190646,0.01908 0.376542,0.07334 0.566965,0.0945 0.09392,0.01042 0.189937,-0.01336 0.283483,0 0.13938,0.0199 0.511878,0.129154 0.661458,0.188986 0.06539,0.02617 0.123592,0.06834 0.188987,0.09449 0.270436,0.108175 0.250864,0.05602 0.472471,0.188989 0.09738,0.05843 0.186098,0.130559 0.283483,0.188989 0.179453,0.10767 0.392927,0.167458 0.566962,0.28348 0.03707,0.02471 0.063,0.063 0.0945,0.0945 0.09449,0.09449 0.188987,0.188987 0.28348,0.283483 0.119216,0.119213 0.279241,0.246327 0.377979,0.377975 0.04226,0.05635 0.05542,0.130384 0.09449,0.188987 0.02471,0.03706 0.06299,0.063 0.09449,0.0945 0.09449,0.09449 0.188989,0.188986 0.283483,0.28348 0.0315,0.0315 0.07457,0.05465 0.09449,0.0945 0.01408,0.02817 -0.01408,0.06632 0,0.09449 0.03984,0.07968 0.149146,0.109305 0.188989,0.188989 0.01408,0.02817 -0.01408,0.06632 0,0.09449 0.01992,0.03984 0.07457,0.05465 0.09449,0.09449 0.01408,0.02817 -0.01407,0.06632 0,0.09449 0.01992,0.03984 0.07457,0.05465 0.09449,0.0945 0.0378,0.07559 -0.0378,0.207886 0,0.283483 0.01992,0.03984 0.07458,0.05465 0.0945,0.09449 0.01407,0.02817 0,0.06299 0,0.09449 0,0.063 -0.01992,0.129225 0,0.188989 0.01407,0.04226 0.07457,0.05465 0.09449,0.09449 0.01408,0.02817 -0.0076,0.06394 0,0.09449 0.02416,0.09663 0.07034,0.186851 0.09449,0.283482 0.01527,0.06112 -0.01992,0.129226 0,0.18899 0.02228,0.06682 0.07741,0.120658 0.0945,0.188986 0.03056,0.12223 -0.03056,0.255746 0,0.377976 0.01709,0.06833 0.07741,0.120661 0.09449,0.188989 0.01527,0.06112 -0.01529,0.127873 0,0.188989 0.01709,0.06833 0.07741,0.120658 0.09449,0.188987 0.01529,0.06112 -0.01527,0.127873 0,0.188989 0.01709,0.06833 0.08068,0.119923 0.09449,0.188987 0.01855,0.09266 -0.01553,0.190275 0,0.283482 0.01638,0.09825 0.07496,0.185812 0.0945,0.283483 0.01236,0.06177 -0.01236,0.127214 0,0.188989 0.01953,0.09767 0.0575,0.191 0.09449,0.28348 0.02617,0.06539 0.08068,0.119925 0.09449,0.188989 0.01852,0.09266 -0.01336,0.189937 0,0.283483 0.01836,0.128563 0.07613,0.249412 0.0945,0.377976 0.01336,0.09354 -0.01553,0.190272 0,0.283482 0.03275,0.196501 0.160814,0.369755 0.188987,0.566965 0.03564,0.249449 -0.03564,0.5065 0,0.755952 0.01408,0.09861 0.063,0.188986 0.09449,0.283482 0.0315,0.125992 0.07839,0.249108 0.0945,0.377976 0.01564,0.125018 -0.01392,0.252754 0,0.377976 0.024,0.215934 0.133144,0.627068 0.188987,0.850447 0.0315,0.125992 0.07838,0.249108 0.0945,0.377976 0.01564,0.125018 -0.01392,0.252754 0,0.377976 0.01773,0.159626 0.05965,0.315685 0.09449,0.472469 0.02817,0.126778 0.08015,0.248902 0.09449,0.377976 0.01738,0.156527 -0.01738,0.315944 0,0.472472 0.01434,0.129074 0.07314,0.249872 0.09449,0.377975 0.04175,0.250489 0.05588,0.50496 0.0945,0.755952 0.08334,0.54174 0.2452,1.075301 0.377975,1.606399 0.229296,0.917181 -0.04031,-0.161229 0.188987,0.755952 0.0315,0.125992 0.0489,0.256376 0.0945,0.377978 0.04946,0.131892 0.139528,0.246081 0.188987,0.377976 0.0456,0.1216 0.0489,0.256373 0.0945,0.377976 0.04946,0.131895 0.133499,0.248502 0.188987,0.377976 0.03924,0.09155 0.05526,0.191931 0.09449,0.283482 0.05549,0.129474 0.133501,0.248502 0.18899,0.377976 0.03924,0.09155 0.04995,0.194392 0.09449,0.283483 0.05079,0.101578 0.1382,0.181903 0.188989,0.283482 0.04454,0.08909 0.04995,0.194392 0.09449,0.283483 0.541616,0.812419 -0.107738,-0.215482 0.283483,0.566962 0.05079,0.101579 0.1382,0.181904 0.188989,0.283483 0.04454,0.08909 0.04995,0.194392 0.09449,0.283482 0.05079,0.101579 0.130559,0.186097 0.188987,0.283483 0.03624,0.06039 0.05826,0.128592 0.0945,0.188986 0.05843,0.09739 0.138197,0.181906 0.188986,0.283483 0.04455,0.08909 0.04325,0.198072 0.0945,0.283482 0.09167,0.152789 0.271069,0.235432 0.377976,0.377976 0.04226,0.05635 0.05223,0.132644 0.09449,0.188989 0.05345,0.07127 0.135535,0.117716 0.188989,0.188987 0.04226,0.05634 0.05223,0.132643 0.09449,0.188989 0.408715,0.408715 0.01482,-0.02503 0.283483,0.377976 0.02471,0.03706 0.06299,0.063 0.09449,0.09449 0.063,0.063 0.125992,0.125992 0.188989,0.188989 0.0315,0.0315 0.05743,0.06978 0.09449,0.09449 0.0586,0.03907 0.139184,0.04469 0.188987,0.0945 0.0498,0.0498 0.05543,0.130384 0.0945,0.188986 0.0267,0.04005 0.244385,0.263935 0.283482,0.283483 0.02817,0.01408 0.07222,-0.02228 0.09449,0 0.02228,0.02228 -0.01408,0.06632 0,0.09449 0.19663,0.393263 -0.0065,-0.101018 0.188986,0.0945 0.02228,0.02228 -0.02228,0.07222 0,0.09449 0.02228,0.02228 0.06632,-0.01408 0.0945,0 0.06739,0.0337 0.121592,0.155289 0.188987,0.188987 0.02817,0.01408 0.06632,-0.01408 0.0945,0 0.161589,0.0808 0.0274,0.108193 0.188986,0.188989 0.02817,0.01408 0.06461,-0.0099 0.09449,0 0.06682,0.02228 0.122171,0.07222 0.188989,0.09449 0.02988,0.0099 0.06632,-0.01408 0.09449,0 0.03984,0.01992 0.05465,0.07457 0.0945,0.0945 0.02484,0.01241 0.328562,0 0.377976,0 0.0315,0 0.07222,0.02228 0.09449,0 0.02228,-0.02228 -0.02228,-0.07222 0,-0.0945 0.02796,-0.02796 0.319445,0.02927 0.377976,0 0.03984,-0.01992 0.05465,-0.07457 0.09449,-0.09449 0.05635,-0.02817 0.129225,0.01992 0.188989,0 0.684459,-0.228153 -0.148978,0.02724 0.283483,-0.188989 0.02817,-0.01408 0.06461,0.0099 0.09449,0 0.06682,-0.02228 0.122172,-0.07222 0.18899,-0.09449 0.02988,-0.0099 0.06632,0.01408 0.09449,0 0.03984,-0.01992 0.05465,-0.07457 0.09449,-0.09449 0.02817,-0.01408 0.063,0 0.0945,0 0.063,-0.0315 0.130384,-0.05542 0.188987,-0.09449 0.03706,-0.02471 0.05971,-0.06667 0.09449,-0.0945 0.122981,-0.09838 0.246938,-0.196122 0.377978,-0.283483 0.117205,-0.07814 0.265285,-0.104468 0.377976,-0.188986 0.07127,-0.05345 0.125992,-0.125992 0.188987,-0.188989 0.0315,-0.0315 0.06979,-0.05743 0.0945,-0.09449 0.03907,-0.0586 0.04469,-0.139186 0.09449,-0.188989 0.229507,-0.229507 0.138758,0.0281 0.283482,-0.188986 0.08314,-0.124714 0.105844,-0.253262 0.188987,-0.377976 0.02471,-0.03707 0.06979,-0.05743 0.0945,-0.0945 0.03907,-0.0586 0.063,-0.125992 0.09449,-0.188987 0.0315,-0.063 0.07741,-0.12066 0.09449,-0.188989 0.01527,-0.06111 -0.01992,-0.129225 0,-0.188987 0.01407,-0.04226 0.06979,-0.05743 0.09449,-0.0945 0.1163,-0.17445 0.167182,-0.392512 0.283482,-0.566962 0.02471,-0.03706 0.06979,-0.05743 0.0945,-0.0945 0.03907,-0.0586 0.063,-0.125992 0.09449,-0.188986 0.0315,-0.063 0.07741,-0.120661 0.09449,-0.18899 0.01527,-0.06111 -0.01527,-0.127873 0,-0.188986 0.01709,-0.06833 0.063,-0.125992 0.09449,-0.188989 0.063,-0.125992 0.125995,-0.251984 0.188989,-0.377976 0.0315,-0.063 0.07741,-0.120661 0.09449,-0.18899 0.01529,-0.06111 -0.01527,-0.127873 0,-0.188986 0.01709,-0.06833 0.063,-0.125992 0.0945,-0.188989 0.0315,-0.063 0.06299,-0.125992 0.09449,-0.188987 0.221604,-0.443211 -0.04454,0.111361 0.188987,-0.472472 0.02617,-0.06539 0.07741,-0.120658 0.0945,-0.188986 0.01527,-0.06112 -0.01529,-0.127873 0,-0.188989 0.01709,-0.06833 0.063,-0.125992 0.09449,-0.188987 0.063,-0.125995 0.125992,-0.251987 0.188989,-0.377978 0.0315,-0.063 0.07741,-0.120658 0.09449,-0.188987 0.01527,-0.06112 -0.01992,-0.129225 0,-0.188989 0.01408,-0.04226 0.06978,-0.05743 0.09449,-0.09449 0.07814,-0.117205 0.110852,-0.26077 0.188989,-0.377975 0.02471,-0.03706 0.06777,-0.05886 0.09449,-0.09449 0.06814,-0.09086 0.120849,-0.19263 0.188989,-0.283482 0.07665,-0.102201 0.193043,-0.193045 0.28348,-0.283483 0.07381,-0.07381 0.201943,-0.229124 0.283483,-0.283482 0.0586,-0.03907 0.130386,-0.05542 0.188989,-0.09449 0.07413,-0.04942 0.104471,-0.160816 0.188986,-0.188989 0.05976,-0.01992 0.129226,0.01992 0.18899,0 0.04226,-0.01408 0.063,-0.06299 0.09449,-0.09449 0.063,-0.0315 0.122171,-0.07222 0.188989,-0.09449 0.02988,-0.0099 0.063,0 0.09449,0 0.063,-0.0315 0.122171,-0.07222 0.188989,-0.0945 0.08964,-0.02988 0.191809,0.02291 0.283482,0 0.06833,-0.01709 0.125992,-0.063 0.188987,-0.09449 0.15749,-0.0315 0.313476,-0.07178 0.472472,-0.09449 0.138395,-0.01976 0.332602,0 0.472469,0 0.063,0 0.129225,0.01992 0.188989,0 0.04226,-0.01408 0.05223,-0.08041 0.09449,-0.0945 0.05976,-0.01992 0.125992,0 0.188987,0 0.0945,0 0.188989,0 0.283482,0 0.063,0 0.127873,0.01527 0.18899,0 0.06833,-0.01709 0.119925,-0.08068 0.188986,-0.09449 0.217297,-0.04346 0.533588,0.03706 0.755954,0 0.09825,-0.01638 0.185812,-0.07496 0.283483,-0.09449 0.06177,-0.01236 0.125992,0 0.188986,0 0.09449,0 0.18899,0 0.283483,0 0.09449,0 0.190275,0.01553 0.283483,0 0.09825,-0.01638 0.185232,-0.07812 0.283482,-0.09449 0.09321,-0.01553 0.188987,0 0.283483,0 0.09449,0 0.188986,0 0.283479,0 0.409475,0 0.818949,0 1.228424,0 0.472472,0 0.944941,0 1.41741,0 0.0945,0 0.188989,0 0.283482,0 0.0945,0 0.190275,-0.01553 0.283483,0 0.09825,0.01638 0.185232,0.07812 0.283482,0.09449 0.09321,0.01553 0.18899,0 0.283483,0 0.15749,0 0.314981,0 0.472469,0 0.0945,0 0.190823,-0.01852 0.283482,0 0.06906,0.01381 0.120661,0.07741 0.18899,0.09449 0.06111,0.01527 0.125992,0 0.188986,0 0.157491,0 0.31804,-0.03088 0.472472,0 0.06906,0.01381 0.120658,0.07741 0.188987,0.09449 0.122232,0.03056 0.255746,-0.03056 0.377975,0 0.06833,0.01709 0.120661,0.07741 0.18899,0.0945 0.07433,0.01857 0.468698,0 0.566965,0 0.06299,0 0.127873,-0.01527 0.188986,0 0.06833,0.01709 0.122172,0.07222 0.188989,0.09449 0.06123,0.0204 0.395108,0 0.47247,0 0.0315,0 0.06632,-0.01408 0.0945,0 0.03984,0.01992 0.05223,0.08041 0.09449,0.09449 0.04322,0.01439 0.335928,-0.02103 0.377976,0 0.03984,0.01992 0.05465,0.07457 0.09449,0.0945 0.06527,0.03263 0.439301,-0.03317 0.472472,0 0.125992,0.125992 -0.157491,0.09449 0.09449,0.09449 0.02291,0 0.280442,-0.003 0.283482,0 0.02228,0.02228 -0.02228,0.07222 0,0.09449 0.04725,0.04725 0.236236,-0.04725 0.283483,0 0.04454,0.04455 -0.02817,0.132644 0,0.188989 0.01992,0.03984 0.07457,0.05465 0.09449,0.09449 0.01408,0.02817 0,0.06299 0,0.09449 0,0.0315 0.02228,0.07222 0,0.0945 -0.02228,0.02228 -0.07222,-0.02228 -0.09449,0 -0.02228,0.02228 0,0.063 0,0.09449 0,0.0315 0,0.063 0,0.09449 0,0.09516 0.01741,0.514707 0,0.566965 -0.01408,0.04226 -0.08369,0.05128 -0.0945,0.09449 -0.02487,0.09945 0,0.431326 0,0.566965 0,0.063 0.01527,0.127873 0,0.188987 -0.01709,0.06833 -0.07741,0.12066 -0.09449,0.188989 -0.04102,0.164065 0.04101,0.402899 0,0.566965 -0.01709,0.06833 -0.07741,0.120658 -0.09449,0.188986 -0.01527,0.06112 0,0.125992 0,0.18899 0,0.125992 0,0.251983 0,0.377975 0,0.063 0.01236,0.127215 0,0.18899 -0.01953,0.09767 -0.07496,0.185809 -0.09449,0.283479 -0.02471,0.123548 0.02471,0.254432 0,0.377979 -0.01953,0.09767 -0.07496,0.185809 -0.0945,0.28348 -0.01236,0.06177 0.01236,0.127217 0,0.188989 -0.01953,0.09767 -0.0575,0.191 -0.09449,0.283483 -0.02617,0.06539 -0.08068,0.119922 -0.09449,0.188986 -0.01852,0.09266 0.01852,0.190826 0,0.283483 -0.01381,0.06906 -0.08068,0.119925 -0.0945,0.188989 -0.01852,0.09266 0.01553,0.190272 0,0.283482 -0.01638,0.09825 -0.07812,0.185233 -0.09449,0.283483 -0.01553,0.09321 0.01852,0.190823 0,0.28348 -0.01381,0.06906 -0.08068,0.119925 -0.09449,0.188989 -0.04633,0.152903 0.03088,0.318037 0,0.472469 -0.01953,0.09767 -0.07496,0.185812 -0.09449,0.283483 -0.01236,0.06177 0.01527,0.127873 0,0.188989 -0.01709,0.06833 -0.07515,0.121266 -0.0945,0.188986 -0.244568,0.193826 -0.04047,0.445384 -0.09449,0.661459 -0.01709,0.06833 -0.07741,0.12066 -0.09449,0.188989 -0.03056,0.12223 0.03056,0.255746 0,0.377976 -0.01709,0.06833 -0.07741,0.12066 -0.0945,0.188989 -0.02291,0.09167 0,0.188987 0,0.283483 0,0.251983 0,0.503967 0,0.755951 0,0.220485 0,0.440971 0,0.661458 0,0.063 0,0.125992 0,0.188987 0,0.0315 -0.01408,0.06632 0,0.0945 0.01992,0.03984 0.08041,0.05223 0.0945,0.09449 0.01992,0.0598 0,0.126 0,0.18899 0,0.0315 -0.01408,0.0663 0,0.0945 0.01992,0.0398 0.07457,0.0547 0.09449,0.0945 0.01407,0.0282 -0.01408,0.0663 0,0.0945 0.01992,0.0399 0.07457,0.0546 0.09449,0.0945 0.02817,0.0563 -0.04455,0.14444 0,0.18898 0.02228,0.0223 0.07222,-0.0223 0.0945,0 0.04454,0.0446 -0.04454,0.14445 0,0.18899 0.02228,0.0223 0.07222,-0.0223 0.09449,0 0.0498,0.0498 0.05542,0.13039 0.09449,0.18899 0.0267,0.04 0.244385,0.26394 0.283483,0.28348 0.08909,0.0446 0.186851,0.0703 0.283482,0.0945 0.06112,0.0153 0.125992,0 0.188987,0 0.220488,0 0.440973,0 0.661458,0 0.125995,0 0.251987,0 0.377979,0 0.06299,0 0.125992,0 0.188986,0 0.0315,0 0.06461,0.01 0.09449,0 0.06682,-0.0223 0.122171,-0.0722 0.188989,-0.0945 0.123206,-0.0411 0.257394,-0.0463 0.377976,-0.0945 0.04136,-0.0165 0.05224,-0.0804 0.09449,-0.0945 0.05976,-0.0199 0.127873,0.0153 0.188989,0 0.06833,-0.0171 0.125992,-0.063 0.188989,-0.0945 0.188987,-0.0945 0.377976,-0.18899 0.566963,-0.28348 0.125992,-0.063 0.247189,-0.13667 0.377976,-0.18899 0.583834,-0.23353 0.02926,0.0326 0.472471,-0.18899 0.432001,-0.216 -0.09767,0.0586 0.472469,-0.28348 0.0604,-0.0362 0.128596,-0.0583 0.18899,-0.0945 0.09738,-0.0584 0.186097,-0.13056 0.283482,-0.188988 0.366414,-0.21985 0.0081,0.06481 0.472469,-0.283483 0.31605,-0.124227 0.502642,-0.458808 0.755952,-0.661458 0.055,-0.044 0.13399,-0.0505 0.188989,-0.09449 0.104352,-0.08348 0.188989,-0.188989 0.283483,-0.283483 0.15749,-0.15749 0.314981,-0.314981 0.472469,-0.472471 0.063,-0.063 0.119422,-0.133335 0.188989,-0.188987 0.53367,-0.426937 0.07596,0.115676 0.755952,-0.661458 0.07478,-0.08547 0.116284,-0.196239 0.188989,-0.283483 0.228134,-0.273764 0.521287,-0.487764 0.755951,-0.755951 0.07479,-0.08547 0.118044,-0.194803 0.18899,-0.283483 0.05565,-0.06957 0.133334,-0.119422 0.188986,-0.188989 0.141891,-0.177364 0.251984,-0.377976 0.377976,-0.566965 0.125992,-0.188987 0.265287,-0.369755 0.377976,-0.566963 0.06989,-0.122303 0.116514,-0.257188 0.188989,-0.377975 0.116861,-0.194768 0.267668,-0.368414 0.377976,-0.566965 0.04837,-0.08707 0.04995,-0.194392 0.09449,-0.283483 0.05079,-0.101579 0.1382,-0.181904 0.188989,-0.283482 0.04455,-0.08909 0.0575,-0.191001 0.09449,-0.283483 0.08909,-0.222724 0.207626,-0.433885 0.283482,-0.661458 0.01992,-0.05976 -0.01035,-0.126849 0,-0.188987 0.102375,-0.614251 0.115451,-0.188793 0.283483,-0.944941 0.0205,-0.09224 -0.01336,-0.189939 0,-0.283482 0.306779,-1.227114 -0.04329,0.30303 0.09449,-0.661459 0.03673,-0.25713 0.152257,-0.498824 0.188989,-0.755951 0.01336,-0.09355 -0.01553,-0.190275 0,-0.283483 0.156903,-0.941414 0.04251,0.510347 0.188987,-0.661458 0.01564,-0.125021 0,-0.251984 0,-0.377976 0.0315,-0.220488 0.05465,-0.442328 0.0945,-0.661458 0.02323,-0.127775 0.06299,-0.251984 0.09449,-0.377976 0.063,-0.251986 0.120647,-0.505367 0.188989,-0.755954 0.02619,-0.09609 0.08041,-0.184878 0.09449,-0.283483 0.01781,-0.124724 -0.01564,-0.252955 0,-0.377976 0.01611,-0.128865 0.06299,-0.251983 0.09449,-0.377975 0.063,-0.251984 0.132643,-0.502399 0.188989,-0.755952 0.03484,-0.156784 0.05838,-0.315976 0.09449,-0.472472 0.08761,-0.379629 0.18899,-0.755951 0.283483,-1.133927 0.09449,-0.377976 0.188986,-0.755952 0.283482,-1.133928 0.0315,-0.125994 0.063,-0.251986 0.09449,-0.377978 0.0315,-0.125992 0.05011,-0.255924 0.09449,-0.377976 0.08198,-0.225438 0.201504,-0.436017 0.283483,-0.661458 0.04438,-0.12205 0.0489,-0.256376 0.09449,-0.377976 0.04946,-0.131895 0.139528,-0.246081 0.188989,-0.377976 0.0456,-0.1216 0.0489,-0.256376 0.09449,-0.377976 0.04946,-0.131894 0.139528,-0.246081 0.18899,-0.377975 0.0456,-0.121603 0.04334,-0.258609 0.09449,-0.377976 0.04474,-0.104386 0.1382,-0.181907 0.188989,-0.283483 0.04454,-0.08909 0.04995,-0.194392 0.09449,-0.283482 0.05079,-0.101579 0.130559,-0.1861 0.18899,-0.283483 0.130653,-0.217757 0.237111,-0.450162 0.377975,-0.661458 0.04942,-0.07413 0.133335,-0.11942 0.188987,-0.188989 0.141891,-0.177361 0.232569,-0.392473 0.377976,-0.566963 0.08555,-0.102661 0.197932,-0.180821 0.283482,-0.283482 0.14541,-0.17449 0.217369,-0.406355 0.377976,-0.566965 0.08031,-0.0803 0.203179,-0.108683 0.283483,-0.188987 0.142613,-0.142616 0.245165,-0.320688 0.377975,-0.472472 0.088,-0.10057 0.18899,-0.188986 0.283483,-0.283482 0.063,-0.063 0.117718,-0.135533 0.188989,-0.188987 0.181708,-0.136281 0.377976,-0.251984 0.566965,-0.377975 0.09449,-0.063 0.188987,-0.125995 0.28348,-0.18899 0.0945,-0.063 0.181906,-0.1382 0.283483,-0.188989 1.060124,-0.530061 -0.714957,0.503042 0.661458,-0.28348 0.348924,-0.199387 0.24611,-0.222221 0.661458,-0.377978 0.121603,-0.0456 0.256376,-0.04889 0.377976,-0.09449 0.773237,-0.386617 -0.01601,-0.02617 0.755954,-0.283482 0.160917,-0.05364 0.311552,-0.135348 0.472469,-0.188987 0.123206,-0.04107 0.251984,-0.063 0.377976,-0.0945 0.533792,-0.133445 0.250629,-0.06902 0.850448,-0.188986 0.15749,-0.0315 0.312658,-0.07851 0.472469,-0.09449 0.15671,-0.01566 0.315762,0.01566 0.472472,0 0.319622,-0.03196 0.625041,-0.159909 0.94494,-0.18899 0.188212,-0.01712 0.378627,0.01569 0.566963,0 0.190934,-0.0159 0.376031,-0.07858 0.566965,-0.09449 0.188336,-0.01569 0.378629,0.01569 0.566965,0 0.190931,-0.0159 0.376031,-0.07858 0.566962,-0.0945 0.188336,-0.01569 0.37863,0.01569 0.566965,0 0.190934,-0.0159 0.376031,-0.07858 0.566965,-0.09449 0.188336,-0.01569 0.377976,0 0.566965,0 0.409475,0 0.818947,0 1.228421,0 0.220488,0 0.441534,0.01572 0.661458,0 0.22216,-0.01588 0.439301,-0.07863 0.661459,-0.09449 0.219927,-0.01572 0.440973,0 0.661458,0 0.440973,0 0.881946,0 1.322917,0 0.220488,0 0.441534,0.01572 0.661458,0 0.22216,-0.01588 0.439227,-0.07968 0.661458,-0.09449 0.251429,-0.01677 0.503971,0 0.755955,0 0.220485,0 0.44097,0 0.661458,0 0.661461,0 1.322911,0 1.984371,0 0.22049,0 0.44146,0.01466 0.66146,0 0.25338,-0.01691 0.50257,-0.0776 0.75595,-0.0945 0.22,-0.01466 0.44098,0 0.66146,0 0.22049,0 0.44097,0 0.66146,0 0.62996,0 1.25992,0 1.88988,0 0.56696,0 1.13393,0 1.70089,0 0.18899,0 0.37798,0 0.56697,0 0.18899,0 0.37875,-0.01712 0.56696,0 0.15995,0.01455 0.31266,0.07851 0.47247,0.0945 0.15671,0.01566 0.31498,0 0.47247,0 0.15749,0 0.31498,0 0.47247,0 0.15749,0 0.31563,-0.01426 0.47247,0 0.19081,0.01736 0.37632,0.07543 0.56697,0.09449 0.12536,0.01254 0.25325,-0.01783 0.37797,0 0.0986,0.01408 0.18771,0.06713 0.28349,0.09449 0.12487,0.03568 0.25198,0.063 0.37797,0.09449 0.12599,0.0315 0.24911,0.07839 0.37798,0.0945 0.12502,0.01564 0.25325,-0.01781 0.37797,0 0.0986,0.01408 0.18899,0.063 0.28349,0.09449 0.0945,0.0315 0.19439,0.04995 0.28348,0.09449 0.10157,0.05079 0.1819,0.138199 0.28348,0.188989 0.0891,0.04454 0.19807,0.04325 0.28348,0.09449 0.0764,0.04584 0.11772,0.135536 0.18899,0.188989 0.0564,0.04226 0.13264,0.05223 0.18899,0.09449 0.16185,0.121383 0.27654,0.303408 0.37798,0.472469 0.0362,0.0604 0.0522,0.132643 0.0945,0.188989 0.0534,0.07127 0.1559,0.10627 0.18899,0.188989 0.0351,0.08773 -0.0155,0.190273 0,0.28348 0.0596,0.357786 0.15591,0.198432 0.0945,0.566965 -0.0164,0.09825 -0.0781,0.185232 -0.0945,0.283483 -0.0155,0.09321 0.0134,0.189936 0,0.283482 -0.0184,0.128564 -0.063,0.251984 -0.0945,0.377976 -0.0315,0.125992 -0.0433,0.258606 -0.0945,0.377976 -0.0447,0.104386 -0.14425,0.179096 -0.18899,0.283482 -0.0512,0.11937 -0.0534,0.25477 -0.0945,0.377976 -0.13607,0.408207 -0.70393,1.602616 -0.75596,1.700893 -0.0737,0.139189 -0.20699,0.240305 -0.28348,0.377975 -0.0824,0.148278 -0.12599,0.314982 -0.18899,0.472472 -0.25198,0.440971 -0.48474,0.893501 -0.75595,1.322917 -0.1077,0.170521 -0.26969,0.302315 -0.37797,0.472469 -0.22688,0.356523 -0.35979,0.765609 -0.56697,1.13393 -0.95623,1.699966 -0.19476,0.29287 -0.94494,1.511903 -0.13309,0.216276 -0.23343,0.452668 -0.37798,0.661458 -0.14002,0.202266 -0.32777,0.368009 -0.47247,0.566966 -0.10802,0.148534 -0.17545,0.323934 -0.28348,0.472469 -0.14469,0.198956 -0.32247,0.371975 -0.47247,0.566965 -1.94199,2.52459 0.79903,-0.97087 -0.85044,1.228423 -0.14761,0.196805 -0.31499,0.377976 -0.47247,0.566965 -0.31498,0.377976 -0.62997,0.755952 -0.94494,1.133927 -0.31499,0.377976 -0.61248,0.771237 -0.94495,1.133928 -0.1806,0.197019 -0.38636,0.369946 -0.56696,0.566965 -0.16623,0.181345 -0.30356,0.388115 -0.47247,0.566965 -0.73376,0.776917 -1.5341,1.49094 -2.26786,2.267857 -0.35206,0.372777 -0.67686,0.771359 -1.03943,1.133928 -0.20534,0.205343 -0.43978,0.379383 -0.66146,0.566965 -0.3058,0.258757 -0.95181,0.784098 -1.228422,1.039434 -0.19639,0.181285 -0.369946,0.386363 -0.566965,0.566965 -0.181345,0.166232 -0.379164,0.313563 -0.566962,0.472469 -0.221687,0.187579 -0.435751,0.384247 -0.661459,0.566965 -0.435885,0.352859 -0.89395,0.678199 -1.322916,1.039434 -0.170366,0.143465 -0.307668,0.322649 -0.472472,0.472469 -0.182031,0.165484 -0.379164,0.313566 -0.566965,0.472472 -0.221684,0.187579 -0.439772,0.379384 -0.661458,0.566965 -0.187799,0.158906 -0.377976,0.314979 -0.566963,0.472469 -0.188989,0.15749 -0.37016,0.32487 -0.566965,0.47247 -0.181708,0.13628 -0.39117,0.23415 -0.566965,0.37798 -0.172379,0.14104 -0.307665,0.32265 -0.472469,0.47247 -0.182031,0.16548 -0.378791,0.31401 -0.566965,0.47247 -0.410292,0.34551 -0.816353,0.69604 -1.228423,1.03944 -0.338553,0.28212 -0.715188,0.55322 -1.039435,0.85044 -0.197016,0.1806 -0.362934,0.39433 -0.566962,0.56697 -1.464077,1.23883 0.09366,-0.26697 -1.228423,0.94494 -0.19702,0.1806 -0.372655,0.38345 -0.566965,0.56696 -0.372777,0.35207 -0.760542,0.68801 -1.133928,1.03944 -0.162189,0.15264 -0.307668,0.32264 -0.472471,0.47246 -0.182031,0.16549 -0.384932,0.30699 -0.566963,0.47247 -0.164804,0.14983 -0.306922,0.32348 -0.472472,0.47248 -0.14991,0.13491 -0.322558,0.24305 -0.472469,0.37797 -0.165549,0.149 -0.306922,0.32348 -0.472471,0.47247 -0.149911,0.13492 -0.322559,0.24306 -0.47247,0.37798 -0.165549,0.14899 -0.304159,0.3266 -0.472471,0.47247 -0.304821,0.26418 -0.649351,0.48148 -0.944938,0.75595 -0.147797,0.13724 -0.235363,0.32986 -0.377979,0.47247 -0.142613,0.14261 -0.329856,0.23536 -0.472469,0.37798 -0.111363,0.11136 -0.181753,0.25775 -0.283483,0.37797 -0.244996,0.28954 -0.510955,0.56091 -0.755951,0.85045 -0.203459,0.24045 -0.359548,0.5189 -0.566965,0.75595 -0.117332,0.1341 -0.260644,0.24388 -0.377976,0.37798 -0.103709,0.11852 -0.179774,0.25945 -0.283483,0.37797 -0.117332,0.1341 -0.260643,0.24389 -0.377975,0.37798 -0.103709,0.11852 -0.180989,0.2584 -0.283483,0.37798 -0.173937,0.20292 -0.393028,0.36404 -0.566965,0.56696 -0.102492,0.11958 -0.180988,0.2584 -0.28348,0.37798 -0.08697,0.10146 -0.197932,0.18082 -0.283482,0.28348 -0.0727,0.0872 -0.116285,0.19624 -0.188989,0.28348 -0.08555,0.10266 -0.200002,0.17913 -0.283483,0.28348 -0.169265,0.21159 -0.317087,0.43948 -0.472469,0.66146 -0.06513,0.093 -0.118044,0.1948 -0.188989,0.28348 -0.05565,0.0696 -0.133334,0.11942 -0.188987,0.18899 -0.07094,0.0887 -0.118044,0.1948 -0.188989,0.28348 -0.05565,0.0696 -0.14315,0.1126 -0.188987,0.18899 -0.05125,0.0854 -0.0575,0.191 -0.0945,0.28349 -0.02617,0.0654 -0.06299,0.12599 -0.09449,0.18898 -0.09449,0.18899 -0.188989,0.37798 -0.283482,0.56697 -0.0315,0.063 -0.07741,0.12066 -0.09449,0.18898 -0.01527,0.0611 0.01527,0.12788 0,0.18899 0.05695,0.17103 -0.153074,0.17574 -0.188989,0.28349 -0.01992,0.0598 0.01992,0.12922 0,0.18898 -0.01408,0.0423 -0.07457,0.0546 -0.09449,0.0945 -0.01408,0.0282 0.0099,0.0646 0,0.0945 -0.02228,0.0668 -0.07222,0.12217 -0.09449,0.18899 -0.01992,0.0598 0.02817,0.13264 0,0.18899 -0.01992,0.0398 -0.07457,0.0547 -0.0945,0.0945 -0.0378,0.0756 0.0378,0.20789 0,0.28348 -0.01992,0.0399 -0.07457,0.0547 -0.09449,0.0945 -0.01408,0.0282 0,0.063 0,0.0945 0,0.0315 0,0.063 0,0.0945 0,0.15749 0,0.31498 0,0.47247 0,0.0315 0,0.063 0,0.0945 0,0.0315 -0.02228,0.0722 0,0.0945 0.02228,0.0223 0.07222,-0.0223 0.09449,0 0.02228,0.0223 -0.01408,0.0663 0,0.0945 0.01992,0.0398 0.07458,0.0546 0.0945,0.0945 0.01408,0.0282 -0.02228,0.0722 0,0.0945 0.02228,0.0223 0.07222,-0.0223 0.09449,0 0.04454,0.0445 -0.04455,0.14444 0,0.18899 0.02228,0.0223 0.07222,-0.0223 0.09449,0 0.02228,0.0223 -0.02228,0.0722 0,0.0945 0.04454,0.0445 0.144444,-0.0446 0.188989,0 0.02228,0.0223 -0.02228,0.0722 0,0.0945 0.02228,0.0223 0.06632,-0.0141 0.09449,0 0.02508,0.0125 0.270938,0.25839 0.283482,0.28348 0.01408,0.0282 0,0.063 0,0.0945 0.0315,0.0315 0.07457,0.0546 0.09449,0.0945 0.01408,0.0282 -0.02228,0.0722 0,0.0945 0.02228,0.0223 0.06632,-0.0141 0.0945,0 0.02508,0.0125 0.270936,0.25839 0.28348,0.28348 0.01408,0.0282 -0.02228,0.0722 0,0.0945 0.02228,0.0223 0.07222,-0.0223 0.0945,0 0.02228,0.0223 -0.01408,0.0663 0,0.0945 0.01992,0.0398 0.07457,0.0547 0.09449,0.0945 0.01408,0.0282 -0.01408,0.0663 0,0.0945 0.04649,0.093 0.331484,0.28499 0.377976,0.37797 0.01408,0.0282 -0.01408,0.0663 0,0.0945 0.104466,0.20894 0.05865,0.0293 0.188989,0.0945 0.173964,0.087 0.01503,0.1965 0.188987,0.28348 0.02817,0.0141 0.06632,-0.0141 0.0945,0 0.07968,0.0398 0.109302,0.14915 0.188987,0.18899 0.02817,0.0141 0.07222,-0.0223 0.09449,0 0.195514,0.19551 -0.298768,-0.008 0.0945,0.18899 0.02817,0.0141 0.06632,-0.0141 0.09449,0 0.07968,0.0398 0.109305,0.14914 0.188989,0.18899 0.02817,0.0141 0.063,0 0.09449,0 0.0315,0.0315 0.05465,0.0746 0.09449,0.0945 0.02817,0.0141 0.063,0 0.09449,0 0.063,0.0315 0.130387,0.0554 0.188989,0.0945 0.07413,0.0494 0.104471,0.16082 0.18899,0.18899 0.05976,0.0199 0.130497,-0.0234 0.188986,0 0.105445,0.0422 0.1861,0.13056 0.283483,0.18899 0.12079,0.0725 0.26077,0.11085 0.377975,0.18899 0.03706,0.0247 0.05224,0.0804 0.09449,0.0945 0.05976,0.0199 0.127873,-0.0153 0.188989,0 0.06833,0.0171 0.120661,0.0774 0.188989,0.0945 0.06111,0.0153 0.127873,-0.0153 0.188987,0 0.06833,0.0171 0.12066,0.0774 0.188989,0.0945 0.06111,0.0153 0.127873,-0.0153 0.188987,0 0.06833,0.0171 0.12066,0.0774 0.188989,0.0945 0.06112,0.0153 0.126849,-0.0104 0.188986,0 0.128104,0.0214 0.249876,0.0731 0.377979,0.0945 0.06214,0.0103 0.127873,-0.0153 0.188986,0 0.06833,0.0171 0.119264,0.0845 0.18899,0.0945 0.155905,0.0223 0.316563,-0.0223 0.472469,0 0.06972,0.01 0.12066,0.0774 0.188989,0.0945 0.152786,0.0382 0.318037,-0.0309 0.472469,0 0.06906,0.0138 0.119264,0.0845 0.188989,0.0945 1.256536,0 -0.109828,-0.0498 0.755952,0.0945 0.09321,0.0155 0.188989,0 0.283482,0 0.125992,0 0.251984,0 0.377976,0 0.283483,0 0.566965,0 0.850448,0 0.913442,0 1.826884,0 2.740326,0 0.535467,0 1.070933,0 1.6064,0 0.125992,0 0.251983,0 0.377975,0 0.157491,0 0.315945,0.0174 0.472469,0 0.129077,-0.0143 0.248902,-0.0802 0.377976,-0.0945 0.156528,-0.0174 0.314981,0 0.472472,0 0.283483,0 0.566965,0 0.850445,0 0.755954,0 1.511906,0 2.267857,0 0.157491,0 0.314982,0 0.472472,0 0.157491,0 0.315762,0.0157 0.472469,0 0.159814,-0.016 0.312658,-0.0785 0.472472,-0.0945 0.156707,-0.0157 0.314979,0 0.472469,0 0.264583,0 0.96384,0 1.228423,0 0.157491,0 0.314979,0 0.47247,0 0.15749,0 0.315761,0.0157 0.472471,0 0.159811,-0.016 0.312844,-0.0768 0.472469,-0.0945 0.125222,-0.0139 0.251984,0 0.377976,0 0.125992,0 0.251984,0 0.377976,0 0.629962,0 1.259918,0 1.889878,0 0.126,0 0.25199,0 0.37798,0 0.12599,0 0.25276,0.0139 0.37798,0 0.15962,-0.0177 0.31265,-0.0785 0.47247,-0.0945 0.4366,-0.0437 0.88631,0.0437 1.32291,0 0.15981,-0.016 0.31285,-0.0768 0.47247,-0.0945 0.28175,-0.0313 0.56838,0.0282 0.85045,0 0.15981,-0.016 0.31498,-0.063 0.47247,-0.0945 0.25198,-0.0315 0.50289,-0.0734 0.75595,-0.0945 0.21973,-0.0183 0.44319,0.0312 0.66146,0 0.12857,-0.0184 0.24911,-0.0784 0.37798,-0.0945 0.25003,-0.0312 0.5065,0.0356 0.75595,0 0.0986,-0.0141 0.18488,-0.0804 0.28348,-0.0945 0.12473,-0.0178 0.25325,0.0178 0.37798,0 0.0986,-0.0141 0.18581,-0.075 0.28348,-0.0945 0.2184,-0.0437 0.44233,-0.0547 0.66146,-0.0945 0.12777,-0.0232 0.24911,-0.0784 0.37797,-0.0945 0.12502,-0.0156 0.25326,0.0178 0.37798,0 0.0986,-0.0141 0.18625,-0.0729 0.28348,-0.0945 0.18703,-0.0416 0.38109,-0.048 0.56697,-0.0945 0.0683,-0.0171 0.11992,-0.0807 0.18898,-0.0945 0.0927,-0.0185 0.19028,0.0155 0.28349,0 0.0982,-0.0164 0.18523,-0.0781 0.28348,-0.0945 0.0932,-0.0155 0.19082,0.0185 0.28348,0 0.0691,-0.0138 0.11992,-0.0807 0.18899,-0.0945 0.0927,-0.0185 0.19082,0.0185 0.28348,0 0.0691,-0.0138 0.11993,-0.0807 0.18899,-0.0945 0.0927,-0.0185 0.19027,0.0155 0.28348,0 0.0982,-0.0164 0.18523,-0.0781 0.28348,-0.0945 0.0932,-0.0155 0.19083,0.0185 0.28349,0 0.0691,-0.0138 0.12066,-0.0774 0.18898,-0.0945 0.18588,-0.0465 0.37994,-0.0529 0.56697,-0.0945 0.0972,-0.0216 0.18523,-0.0781 0.28348,-0.0945 0.0932,-0.0155 0.18972,0.0117 0.28348,0 1.2494,-0.15618 -0.10115,-0.0176 0.75596,-0.18899 0.0618,-0.0124 0.12787,0.0153 0.18898,0 0.0683,-0.0171 0.12066,-0.0774 0.18899,-0.0945 0.0611,-0.0153 0.12788,0.0153 0.18899,0 0.0683,-0.0171 0.11951,-0.0829 0.18899,-0.0945 0.12428,-0.0207 0.25443,0.0247 0.37797,0 0.0437,-0.009 0.0522,-0.0804 0.0945,-0.0945 0.0598,-0.0199 0.12787,0.0153 0.18899,0 0.0683,-0.0171 0.13038,-0.0554 0.18898,-0.0945 0.0371,-0.0247 0.0508,-0.0858 0.0945,-0.0945 0.12354,-0.0247 0.25443,0.0247 0.37797,0 0.0437,-0.009 0.0574,-0.0698 0.0945,-0.0945 0.0586,-0.0391 0.12066,-0.0774 0.18899,-0.0945 0.62679,0 -0.13364,0.0445 0.28348,-0.0945 0.0598,-0.0199 0.12922,0.0199 0.18899,0 0.0423,-0.0141 0.063,-0.063 0.0945,-0.0945 0.063,-0.0315 0.12066,-0.0774 0.18899,-0.0945 0.0611,-0.0153 0.12922,0.0199 0.18899,0 0.0423,-0.0141 0.0574,-0.0698 0.0945,-0.0945 0.47737,-0.31824 0.002,-7.9e-4 0.28348,-0.0945 0.13191,-0.044 0.38622,-0.21879 0.47247,-0.28348 0.0356,-0.0267 0.0589,-0.0678 0.0945,-0.0945 0.0908,-0.0681 0.20317,-0.10868 0.28348,-0.18899 0.0498,-0.0498 0.0447,-0.13918 0.0945,-0.18898 0.0498,-0.0498 0.13919,-0.0447 0.18899,-0.0945 0.0803,-0.0803 0.12085,-0.19263 0.18899,-0.28348 0.0267,-0.0356 0.0678,-0.0589 0.0945,-0.0945 0.12443,-0.1659 0.3152,-0.47313 0.37798,-0.66146 0.0199,-0.0598 -0.0153,-0.12788 0,-0.18899 0.0171,-0.0683 0.0683,-0.12359 0.0945,-0.18899 0.037,-0.0925 0.0575,-0.191 0.0945,-0.28348 0.13034,-0.32585 0.0845,-0.0546 0.18899,-0.47247 0.0389,-0.15582 0.0555,-0.31666 0.0945,-0.47247 0.0242,-0.0966 0.0729,-0.18625 0.0945,-0.28348 0.15617,-0.70273 0.0383,-0.47486 0.18899,-1.22842 0.0195,-0.0977 0.0804,-0.18488 0.0945,-0.28349 0.0178,-0.12472 -0.0207,-0.2537 0,-0.37797 0.0427,-0.25621 0.14628,-0.49975 0.18898,-0.75596 0.0207,-0.12427 -0.0139,-0.25275 0,-0.37797 0.20758,-1.86823 -0.0247,1.66919 0.18899,-1.32292 0.0112,-0.15709 -0.0143,-0.31563 0,-0.47247 0.0174,-0.19081 0.0825,-0.37574 0.0945,-0.56696 0.0196,-0.31437 -0.0197,-0.63058 0,-0.94494 0.012,-0.19123 0.0786,-0.37604 0.0945,-0.56697 0.0288,-0.34528 -0.0314,-0.69438 0,-1.03943 0.0174,-0.19081 0.0786,-0.37603 0.0945,-0.56697 0.0314,-0.37667 -0.0342,-0.7575 0,-1.13393 0.0145,-0.15994 0.0799,-0.31252 0.0945,-0.47247 0.0342,-0.37642 -0.0314,-0.75725 0,-1.13393 0.0159,-0.19093 0.0798,-0.37593 0.0945,-0.56696 0.0169,-0.21983 0,-0.44097 0,-0.66146 0,-0.37797 0,-0.75595 0,-1.13393 0,-0.62996 0,-1.25992 0,-1.88988 0,-0.94494 0,-1.88988 0,-2.83482 0,-0.22049 0,-0.44097 0,-0.66146 0,-0.18899 0.0157,-0.37863 0,-0.56696 -0.0159,-0.19093 -0.063,-0.37798 -0.0945,-0.566969 -0.0315,-0.44097 -0.0724,-0.881372 -0.0945,-1.322917 -0.008,-0.167132 0.01,-1.10168 0,-1.22842 -0.0147,-0.191032 -0.0744,-0.376423 -0.0945,-0.566965 -0.2006,-0.610764 -0.0466,-1.26737 -0.0945,-1.889882 -0.0147,-0.191029 -0.0798,-0.375933 -0.0945,-0.566962 -0.0169,-0.219837 0.0169,-0.441624 0,-0.661459 -0.0147,-0.191032 -0.0786,-0.376031 -0.0945,-0.566965 -0.0157,-0.188335 0,-0.377976 0,-0.566965 -0.0315,-0.188986 -0.0744,-0.376422 -0.0945,-0.566965 -0.21713,-0.590158 -0.0447,-1.198165 -0.0945,-1.795386 -0.0159,-0.190933 -0.063,-0.377975 -0.0945,-0.566965 -0.0315,-0.346477 -0.0741,-0.692126 -0.0945,-1.039434 -0.0111,-0.188661 0.0171,-0.378751 0,-0.566965 -0.0145,-0.159948 -0.0785,-0.312658 -0.0945,-0.472469 -0.0345,-0.34476 0.0314,-0.69438 0,-1.039434 -0.0145,-0.159951 -0.0838,-0.312216 -0.0945,-0.472472 -0.0209,-0.314282 0.021,-0.630658 0,-0.944938 -0.0107,-0.160255 -0.0768,-0.312846 -0.0945,-0.472472 -0.0139,-0.125222 0,-0.251984 0,-0.377975 0,-0.157491 0,-0.314982 0,-0.47247 0,-0.15749 0.0174,-0.315944 0,-0.472471 -0.0143,-0.129075 -0.0784,-0.249108 -0.0945,-0.377976 -0.0156,-0.125018 0,-0.251984 0,-0.377976 0,-0.125992 0,-0.251984 0,-0.377976 0,-0.566965 0,-1.13393 0,-1.700892 0,-0.0945 0,-0.188989 0,-0.283483 0,-0.0945 -0.0155,-0.190275 0,-0.283482 0.0164,-0.09825 0.075,-0.185812 0.0945,-0.283483 0.035,-0.174979 -0.035,-0.486479 0,-0.661458 0.0195,-0.09767 0.075,-0.185812 0.0945,-0.283483 0.0124,-0.06177 0,-0.125992 0,-0.188986 0,-0.0945 -0.0185,-0.190826 0,-0.283483 0.0138,-0.06906 0.0774,-0.12066 0.0945,-0.188989 0.0306,-0.12223 -0.0306,-0.255746 0,-0.377976 0.0171,-0.06833 0.0774,-0.12066 0.0945,-0.188989 0.0306,-0.12223 -0.0306,-0.255746 0,-0.377976 0.0171,-0.06833 0.0722,-0.122171 0.0945,-0.188986 0.01,-0.02988 -0.01,-0.06461 0,-0.0945 0.0223,-0.06682 0.0722,-0.122169 0.0945,-0.188987 0.01,-0.02988 -0.01,-0.06461 0,-0.09449 0.0223,-0.06682 0.0554,-0.130387 0.0945,-0.188989 0.0247,-0.03706 0.0804,-0.05223 0.0945,-0.09449 0.0199,-0.05976 -0.0199,-0.129225 0,-0.188989 0.0282,-0.08452 0.13957,-0.114861 0.18899,-0.188986 0.0391,-0.05861 0.0554,-0.130387 0.0945,-0.18899 0.0247,-0.03706 0.0746,-0.05465 0.0945,-0.09449 0.0141,-0.02817 -0.0141,-0.06632 0,-0.0945 0.0199,-0.03984 0.0698,-0.05743 0.0945,-0.09449 0.0391,-0.0586 0.0447,-0.139184 0.0945,-0.188987 0.0498,-0.04981 0.13039,-0.05543 0.18899,-0.0945 0.0741,-0.04942 0.11486,-0.13957 0.18899,-0.188986 0.0602,-0.04015 0.50567,-0.268161 0.56696,-0.283483 0.0611,-0.01527 0.12788,0.01527 0.18899,0 0.14796,-0.03699 0.42695,-0.255479 0.56697,-0.283482 0.0927,-0.01852 0.19082,0.01852 0.28348,0 0.0691,-0.01381 0.12599,-0.063 0.18899,-0.09449 0.0945,-0.0315 0.18523,-0.07812 0.28348,-0.0945 0.0932,-0.01553 0.19082,0.01852 0.28348,0 0.0691,-0.01381 0.11952,-0.08291 0.18899,-0.09449 0.12427,-0.02072 0.25325,0.01781 0.37797,0 0.0986,-0.01408 0.18488,-0.08041 0.28349,-0.09449 0.24945,-0.03564 0.50551,0.02783 0.75595,0 0.15963,-0.01773 0.31284,-0.07676 0.47247,-0.09449 0.28175,-0.03131 0.56837,0.02821 0.85045,0 0.15981,-0.01598 0.31284,-0.07676 0.47247,-0.0945 0.12522,-0.01392 0.25198,0 0.37797,0 0.15749,0 0.31498,0 0.47247,0 0.59846,0 1.19693,0 1.79539,0 0.44097,0 0.88194,0 1.32292,0 0.12599,0 0.25275,-0.01392 0.37797,0 0.15963,0.01773 0.31266,0.07851 0.47247,0.0945 0.28208,0.02821 0.56916,-0.03516 0.85045,0 0.12887,0.01611 0.25198,0.06299 0.37797,0.09449 0.15749,0 0.31595,-0.01738 0.47248,0 0.25814,0.02868 0.49974,0.146285 0.75595,0.188986 0.25049,0.04175 0.5061,0.04907 0.75595,0.0945 0.098,0.01781 0.18771,0.06713 0.28348,0.09449 0.12487,0.03568 0.2531,0.05882 0.37798,0.09449 0.0958,0.02736 0.18808,0.06587 0.28348,0.0945 0.21964,0.06589 0.44392,0.116472 0.66146,0.188986 0.0668,0.02228 0.12359,0.06834 0.18899,0.09449 0.0925,0.03699 0.191,0.0575 0.28348,0.0945 0.0654,0.02617 0.12359,0.06834 0.18899,0.09449 0.0925,0.03699 0.191,0.0575 0.28348,0.09449 0.0654,0.02617 0.12599,0.063 0.18899,0.0945 0.12599,0.063 0.26077,0.11085 0.37797,0.188987 0.0741,0.04942 0.11772,0.135535 0.18899,0.188989 0.0564,0.04226 0.13264,0.05223 0.18899,0.09449 0.10691,0.08018 0.18899,0.18899 0.28348,0.283483 0.063,0.06299 0.12599,0.125992 0.18899,0.188986 0.0315,0.0315 0.0698,0.05743 0.0945,0.0945 0.072,0.107993 0.16704,0.362707 0.18899,0.472469 0.0124,0.06177 -0.0153,0.127874 0,0.18899 0.0171,0.06833 0.0774,0.120658 0.0945,0.188986 0.0153,0.06112 0,0.125992 0,0.188989 0,0.125992 0,0.251984 0,0.377976 0,0.283483 0.0282,0.56837 0,0.850448 -0.01,0.09911 -0.0671,0.187708 -0.0945,0.28348 -0.0357,0.124872 -0.0588,0.253105 -0.0945,0.377978 -0.0274,0.09577 -0.0683,0.187386 -0.0945,0.28348 -0.0683,0.250587 -0.10685,0.509543 -0.18898,0.755954 -0.0891,0.267269 -0.27685,0.493004 -0.37798,0.755952 -0.10727,0.2789 -0.18298,0.569039 -0.28348,0.850447 -0.0571,0.15974 -0.1201,0.317466 -0.18899,0.47247 -0.0572,0.128722 -0.14161,0.245319 -0.18899,0.377975 -0.1106,0.309692 -0.17949,0.632968 -0.28348,0.944941 -0.0536,0.160917 -0.13194,0.31273 -0.18899,0.472469 -0.1005,0.281408 -0.18899,0.566965 -0.28348,0.850448 -0.063,0.188989 -0.13657,0.374772 -0.18899,0.566965 -0.0423,0.154948 -0.0437,0.320103 -0.0945,0.472469 -0.0445,0.133636 -0.12599,0.251984 -0.18899,0.377976 -0.063,0.15749 -0.14025,0.310001 -0.18899,0.472472 -0.0462,0.153834 -0.0483,0.318635 -0.0945,0.472469 -0.0487,0.162467 -0.14025,0.310001 -0.18899,0.472471 -0.0462,0.153834 -0.0483,0.318633 -0.0945,0.472469 -0.0975,0.324938 -0.27069,0.623105 -0.37797,0.944941 -0.11719,0.351571 -0.0891,0.475978 -0.18899,0.850445 -0.20487,0.768258 -0.24951,0.744813 -0.37797,1.322917 -0.0697,0.313571 -0.14015,0.627459 -0.18899,0.944941 -0.0386,0.250991 -0.0491,0.506103 -0.0945,0.755954 -0.0178,0.098 -0.0804,0.184878 -0.0945,0.28348 -0.0178,0.124727 0.0114,0.252502 0,0.377978 -0.0202,0.221808 -0.0743,0.439648 -0.0945,0.661459 -0.0114,0.125473 0,0.251983 0,0.377975 0,0.188987 0,0.377976 0,0.566963 0,0.15749 0,0.314981 0,0.472472 0,0.06299 -0.0124,0.127214 0,0.188986 0.0195,0.09767 0.075,0.185812 0.0945,0.283483 0.0247,0.123547 -0.0306,0.255746 0,0.377975 0.0171,0.06833 0.0774,0.120661 0.0945,0.18899 0.0153,0.06112 -0.0103,0.126849 0,0.188989 0.0213,0.128101 0.0731,0.249872 0.0945,0.377976 0.0103,0.06214 -0.0199,0.129225 0,0.188986 0.0282,0.08452 0.16081,0.104471 0.18899,0.18899 0.0199,0.05976 -0.0199,0.129225 0,0.188986 0.0141,0.04226 0.0746,0.05465 0.0945,0.0945 0.0141,0.02817 -0.0141,0.06632 0,0.09449 0.0398,0.07968 0.14914,0.109305 0.18898,0.18899 0.0141,0.02817 -0.0223,0.07222 0,0.09449 0.0223,0.02228 0.0663,-0.01408 0.0945,0 0.0797,0.03984 0.1093,0.149145 0.18899,0.188986 0.0282,0.01408 0.0663,-0.01407 0.0945,0 0.0398,0.01992 0.0546,0.07457 0.0945,0.0945 0.0282,0.01408 0.0663,-0.01408 0.0945,0 0.0398,0.01992 0.0547,0.07457 0.0945,0.09449 0.0891,0.04454 0.18581,0.07496 0.28349,0.09449 0.0927,0.01852 0.19383,-0.02988 0.28348,0 0.0668,0.02228 0.12066,0.07741 0.18899,0.0945 0.0611,0.01527 0.12599,0 0.18898,0 0.063,0 0.126,0 0.18899,0 0.15749,0 0.31804,0.03088 0.47247,0 0.0691,-0.01381 0.11993,-0.08068 0.18899,-0.0945 0.18532,-0.03706 0.38055,0.03107 0.56697,0 0.0982,-0.01638 0.18581,-0.07496 0.28348,-0.09449 0.0618,-0.01236 0.12721,0.01236 0.18899,0 0.0977,-0.01953 0.18898,-0.063 0.28348,-0.09449 0.0945,-0.0315 0.191,-0.0575 0.28348,-0.0945 0.0654,-0.02617 0.11992,-0.08068 0.18899,-0.09449 0.0927,-0.01852 0.19082,0.01852 0.28348,0 0.0691,-0.01381 0.12784,-0.05955 0.18899,-0.09449 0.15946,-0.09112 0.31672,-0.186142 0.47247,-0.283483 0.19261,-0.120382 0.36841,-0.267668 0.56696,-0.377975 0.18471,-0.102614 0.38226,-0.18087 0.56697,-0.283483 0.19855,-0.110307 0.37797,-0.251984 0.56696,-0.377976 0.0945,-0.063 0.19624,-0.116284 0.28348,-0.188989 0.10266,-0.08555 0.18082,-0.19793 0.28349,-0.283483 0.17449,-0.145407 0.40635,-0.217365 0.56696,-0.377975 0.0803,-0.0803 0.11628,-0.196237 0.18899,-0.283483 0.1711,-0.205322 0.39303,-0.364037 0.56696,-0.566962 0.1025,-0.119576 0.1851,-0.254998 0.28348,-0.377976 0.15368,-0.192101 0.3188,-0.374867 0.47247,-0.566965 0.56697,-0.708705 0,-0.09449 0.85045,-1.13393 0.0846,-0.103426 0.19652,-0.182018 0.28348,-0.28348 0.1025,-0.119576 0.18899,-0.251987 0.28349,-0.377979 0.0945,-0.125991 0.20094,-0.243847 0.28348,-0.377975 0.28781,-0.467691 0.46072,-0.880071 0.75595,-1.322917 0.0874,-0.13104 0.19832,-0.245499 0.28348,-0.377976 0.19864,-0.308988 0.37798,-0.629959 0.56697,-0.944941 0.0945,-0.15749 0.19553,-0.311232 0.28348,-0.472469 0.99951,-1.832443 -0.30891,0.52332 0.47247,-1.039434 0.0821,-0.164274 0.20135,-0.308197 0.28348,-0.472472 0.15171,-0.303429 0.2402,-0.634933 0.37798,-0.94494 0.0572,-0.128723 0.13177,-0.249254 0.18898,-0.377976 0.23479,-0.528257 0.16846,-0.463259 0.37798,-1.039434 0.058,-0.159409 0.12599,-0.314982 0.18899,-0.472469 0.12599,-0.314982 0.23451,-0.637525 0.37798,-0.944941 0.0777,-0.166434 0.20986,-0.304208 0.28348,-0.472472 0.14777,-0.337764 0.2302,-0.70167 0.37797,-1.039434 0.0736,-0.168265 0.20135,-0.308197 0.28349,-0.472469 0.15171,-0.30343 0.22626,-0.641512 0.37797,-0.944941 0.0821,-0.164275 0.18899,-0.314981 0.28348,-0.472469 0.28349,-0.472472 0.56697,-0.944941 0.85045,-1.417413 0.28348,-0.472469 0.56696,-0.944941 0.85045,-1.41741 0.0945,-0.15749 0.1816,-0.319653 0.28348,-0.472469 0.0874,-0.13104 0.19612,-0.246938 0.28348,-0.377978 0.10188,-0.152816 0.1816,-0.319651 0.28348,-0.472469 0.0874,-0.131041 0.207,-0.240306 0.28348,-0.377976 0.0824,-0.148278 0.10662,-0.324194 0.18899,-0.472472 0.0765,-0.137671 0.18899,-0.251984 0.28349,-0.377976 0.18898,-0.251984 0.36197,-0.5168 0.56696,-0.755951 0.087,-0.101463 0.19651,-0.18202 0.28348,-0.283483 0.20499,-0.239151 0.36198,-0.516803 0.56697,-0.755952 0.17393,-0.202927 0.37797,-0.377975 0.56696,-0.566965 0.22049,-0.220485 0.44097,-0.440973 0.66146,-0.661458 0.0945,-0.09449 0.18082,-0.197932 0.28348,-0.283482 0.0873,-0.0727 0.19384,-0.119264 0.28348,-0.188987 0.19419,-0.151035 0.37278,-0.321437 0.56697,-0.472472 0.0896,-0.06972 0.18899,-0.125992 0.28348,-0.188986 0.18899,-0.125992 0.37798,-0.251984 0.56696,-0.377976 0.0945,-0.063 0.1791,-0.144254 0.28349,-0.188989 0.11937,-0.05116 0.25637,-0.0489 0.37797,-0.09449 0.1319,-0.04946 0.25199,-0.125992 0.37798,-0.188989 0.22048,-0.06299 0.44595,-0.110622 0.66146,-0.188986 0.52844,-0.192165 0.20968,-0.205447 0.75595,-0.283483 0.0935,-0.01336 0.18994,0.01336 0.28348,0 0.12856,-0.01836 0.25199,-0.063 0.37798,-0.0945 0.40079,-0.100198 0.81705,-0.237773 1.22842,-0.28348 0.28175,-0.03131 0.56837,0.02821 0.85045,0 0.15981,-0.01598 0.31266,-0.07852 0.47247,-0.0945 0.1567,-0.01566 0.31498,0 0.47247,0 0.15749,0 0.31498,0 0.47247,0 0.15749,0 0.31562,-0.01426 0.47247,0 0.19081,0.01736 0.37616,0.07715 0.56696,0.0945 0.15684,0.01426 0.31498,0 0.47247,0 0.15749,0 0.31498,0 0.47247,0 0.18899,0 0.37875,-0.01712 0.56697,0 0.15995,0.01455 0.31241,0.08116 0.47247,0.09449 0.21972,0.01831 0.44173,-0.01831 0.66146,0 0.16005,0.01333 0.31498,0.06299 0.47246,0.09449 0.40948,0.0315 0.81826,0.07398 1.22843,0.09449 0.22021,0.01101 0.44153,-0.01572 0.66146,0 0.22216,0.01587 0.44097,0.063 0.66145,0.0945 0.59847,0.0315 1.19654,0.07146 1.79539,0.09449 0.22032,0.0085 0.44097,0 0.66146,0 0.59846,0 1.19692,0 1.79539,0 0.22048,0 0.44153,-0.01572 0.66146,0 0.22215,0.01588 0.43922,0.07968 0.66145,0.09449 0.25143,0.01675 0.50397,0 0.75596,0 0.91344,0 1.82688,0 2.74032,0 1.88988,0 3.77977,0 5.66965,0 3.99564,0 1.13534,-0.07415 3.49628,0.0945 0.1885,0.01347 0.38164,-0.03707 0.56696,0 0.0691,0.01381 0.12066,0.07741 0.18899,0.09449 0.0611,0.01527 0.12922,-0.01992 0.18899,0 0.0423,0.01408 0.0522,0.08041 0.0945,0.09449 0.0598,0.01992 0.12922,-0.01992 0.18899,0 0.0423,0.01408 0.0746,0.05465 0.0945,0.09449 0.004,0.0078 0.004,0.271325 0,0.283483 -0.0223,0.06682 -0.0447,0.139187 -0.0945,0.188989 -0.0498,0.0498 -0.13919,0.04469 -0.18899,0.09449 -0.0498,0.0498 -0.0522,0.132644 -0.0945,0.18899 -0.17112,0.228155 -0.24001,0.192008 -0.47247,0.377976 -0.17499,0.139991 -0.28874,0.341227 -0.47247,0.472469 -0.11463,0.08187 -0.26336,0.107114 -0.37798,0.188989 -0.10874,0.07767 -0.18899,0.188986 -0.28348,0.283482 -0.126,0.125992 -0.23733,0.268584 -0.37798,0.377976 -0.28995,0.225518 -0.64401,0.356315 -0.94494,0.566965 -0.16523,0.115658 -0.30627,0.263713 -0.47247,0.377976 -0.33842,0.232664 -0.69464,0.438354 -1.03943,0.661458 -0.1907,0.123391 -0.39118,0.234146 -0.56697,0.377976 -0.17238,0.141036 -0.30009,0.331433 -0.47247,0.472469 -0.17579,0.14383 -0.38283,0.244991 -0.56696,0.377976 -0.38302,0.276627 -0.75984,0.561861 -1.13393,0.850448 -0.72839,0.561901 -1.44816,1.134882 -2.17336,1.700892 -0.56623,0.441928 -1.13774,0.877089 -1.7009,1.322917 -0.19288,0.152699 -0.37197,0.322477 -0.56696,0.472471 -1.33426,1.026351 -1.98592,1.449047 -3.2128,2.456845 -0.44879,0.368651 -0.88103,0.757023 -1.32292,1.133927 -0.84999,0.724993 -1.70011,1.449824 -2.55133,2.173364 -0.4087,0.347393 -0.80958,0.704353 -1.22843,1.039434 -0.21158,0.169265 -0.4484,0.305068 -0.66146,0.472472 -0.22834,0.179411 -0.43977,0.379383 -0.66145,0.566962 -0.3756,0.317815 -0.76987,0.613977 -1.13393,0.944941 -0.1648,0.149821 -0.30137,0.329885 -0.47247,0.472472 -0.20816,0.173461 -0.46172,0.289377 -0.66146,0.472469 -0.18135,0.166233 -0.29852,0.39301 -0.47247,0.566965 -0.14262,0.142613 -0.31638,0.250262 -0.47247,0.377976 -0.1904,0.155781 -0.38494,0.306988 -0.56697,0.472469 -0.1648,0.14982 -0.30485,0.325805 -0.47247,0.472472 -0.65784,0.575611 -1.31499,1.048578 -1.98437,1.606399 -0.44618,0.371814 -0.87866,0.759817 -1.32292,1.133927 -0.15427,0.129913 -0.32173,0.243983 -0.47247,0.377976 -0.13317,0.118377 -0.24109,0.263909 -0.37798,0.377976 -0.43082,0.359021 -0.88024,0.695134 -1.32291,1.039434 -0.57522,0.447395 -0.40987,0.28376 -1.22842,0.850448 -0.12949,0.08965 -0.25946,0.179773 -0.37798,0.283482 -0.13409,0.117332 -0.24109,0.263909 -0.37798,0.377976 -0.24197,0.201644 -0.50396,0.377976 -0.75595,0.566965 -0.37797,0.283483 -0.75595,0.566962 -1.13393,0.850445 -0.25198,0.188989 -0.5168,0.361979 -0.75595,0.566965 -0.10146,0.08697 -0.18415,0.194085 -0.28348,0.283482 -1.08989,0.980906 -0.30565,0.211159 -0.94494,0.850446 -0.0945,0.0945 -0.2,0.17913 -0.28348,0.28348 -0.044,0.055 -0.0447,0.13919 -0.0945,0.18899 -0.0803,0.0803 -0.19624,0.11629 -0.28348,0.18899 -0.1711,0.14259 -0.31498,0.31498 -0.47247,0.47247 -0.063,0.063 -0.11772,0.13554 -0.18899,0.18899 -0.0563,0.0423 -0.12859,0.0583 -0.18899,0.0945 -0.48327,0.28997 -0.1748,0.15295 -0.75595,0.66146 -0.70899,0.62037 0.0456,-0.1051 -0.47247,0.28349 -0.0713,0.0535 -0.12599,0.12599 -0.18899,0.18898 -0.12599,0.12599 -0.26391,0.2411 -0.37797,0.37798 -0.0451,0.0541 -0.0447,0.13918 -0.0945,0.18899 -0.0498,0.0498 -0.14499,0.0395 -0.18899,0.0945 -0.17149,0.21437 -0.22501,0.52652 -0.37797,0.75595 -0.0247,0.0371 -0.0804,0.0522 -0.0945,0.0945 -0.0199,0.0598 0.0199,0.12922 0,0.18898 -0.0141,0.0423 -0.0746,0.0547 -0.0945,0.0945 -0.0141,0.0282 0.0141,0.0663 0,0.0945 -0.0199,0.0399 -0.0746,0.0547 -0.0945,0.0945 -0.0141,0.0282 0.0141,0.0663 0,0.0945 -0.0199,0.0398 -0.0746,0.0546 -0.0945,0.0945 -0.0144,0.0288 0,0.24092 0,0.28348 0,0.0315 0,0.063 0,0.0945 0,0.0315 -0.0223,0.0722 0,0.0945 0.0223,0.0223 0.0722,-0.0223 0.0945,0 0.0223,0.0223 -0.0223,0.0722 0,0.0945 0.0223,0.0223 0.0663,-0.0141 0.0945,0 0.0398,0.0199 0.0547,0.0746 0.0945,0.0945 0.0564,0.0282 0.13265,-0.0282 0.18899,0 0.0398,0.0199 0.0547,0.0746 0.0945,0.0945 0.0756,0.0378 0.20788,-0.0378 0.28348,0 0.0398,0.0199 0.0508,0.0858 0.0945,0.0945 0.12355,0.0247 0.25443,-0.0247 0.37798,0 0.0437,0.009 0.0513,0.0837 0.0945,0.0945 0.14823,0.037 0.32425,-0.0371 0.47247,0 0.0683,0.0171 0.11993,0.0807 0.18899,0.0945 0.0927,0.0185 0.18994,-0.0134 0.28348,0 0.12857,0.0184 0.24942,0.0761 0.37798,0.0945 0.0935,0.0134 0.19082,-0.0185 0.28348,0 0.0691,0.0138 0.12066,0.0774 0.18899,0.0945 0.0611,0.0153 0.12599,0 0.18899,0 0.15749,0.0315 0.31665,0.0555 0.47247,0.0945 0.28812,0.072 0.56591,0.19812 0.85044,0.28349 0.56167,0.16849 0.56624,0.16518 1.03944,0.28348 0.25198,0.063 0.50954,0.10685 0.75595,0.18898 0.13364,0.0446 0.2465,0.13843 0.37798,0.18899 0.5578,0.21454 1.14309,0.35243 1.70089,0.56697 0.13148,0.0506 0.24925,0.13177 0.37798,0.18899 1.23423,0.54854 -0.55653,-0.35056 1.32291,0.66145 1.30255,0.70137 -0.68345,-0.38897 0.85045,0.37798 0.14391,0.072 1.06345,0.58297 1.32292,0.75595 0.13104,0.0874 0.24549,0.19832 0.37797,0.28348 0.46348,0.29796 0.94494,0.56697 1.41741,0.85045 0.15749,0.0945 0.32201,0.17816 0.47247,0.28348 0.16523,0.11566 0.30724,0.26232 0.47247,0.37798 0.15047,0.10532 0.32201,0.17816 0.47247,0.28348 0.33046,0.23132 0.61872,0.5187 0.94494,0.75595 1.46661,0.97774 -0.26023,-0.19713 1.03944,0.75596 0.31005,0.22737 0.64317,0.42321 0.94494,0.66145 0.49806,0.39321 0.82181,0.78316 1.32292,1.13393 0.15046,0.10533 0.322,0.17816 0.47247,0.28348 0.33045,0.23132 0.6167,0.5215 0.94494,0.75596 0.27724,0.19803 0.58039,0.35923 0.85044,0.56696 0.14123,0.10864 0.24196,0.26289 0.37798,0.37798 0.2816,0.23827 0.86711,0.67396 1.22842,0.94494 0.54972,0.41229 0.46505,0.3597 1.22842,0.85044 0.1545,0.0993 0.31966,0.18161 0.47248,0.28349 0.13103,0.0874 0.24693,0.19612 0.37797,0.28348 0.43619,0.29079 0.87969,0.57051 1.32292,0.85044 0.15528,0.0981 0.31965,0.18161 0.47247,0.28349 0.13104,0.0874 0.24694,0.19612 0.37797,0.28348 0.59081,0.39387 0.31008,0.17226 0.85045,0.47247 0.16055,0.0892 0.31605,0.18722 0.47247,0.28348 0.45464,0.13894 0.74871,0.51519 1.13393,0.75596 0.11945,0.0747 0.25567,0.1191 0.37798,0.18898 0.0986,0.0564 0.1819,0.1382 0.28348,0.18899 0.60326,0.2413 0.32075,0.11313 0.85044,0.37798 0.12599,0.063 0.25568,0.1191 0.37798,0.18898 0.0986,0.0564 0.1791,0.14426 0.28348,0.18899 0.11937,0.0512 0.2574,0.0463 0.37798,0.0945 0.35337,0.14134 0.68961,0.32254 1.03943,0.47247 0.2736,0.11725 0.57402,0.17291 0.85045,0.28348 0.0654,0.0262 0.12359,0.0683 0.18899,0.0945 0.0925,0.037 0.19193,0.0553 0.28348,0.0945 0.12947,0.0555 0.24434,0.14444 0.37798,0.18899 0.15236,0.0508 0.31665,0.0555 0.47247,0.0945 0.0966,0.0242 0.191,0.0575 0.28348,0.0945 0.0654,0.0262 0.11992,0.0807 0.18899,0.0945 0.12404,0.0248 0.41672,0 0.56696,0 0.22161,0 -0.0445,-0.0223 0.18899,0.0945 0.0282,0.0141 0.0722,-0.0223 0.0945,0 0.0223,0.0223 0.0315,0.0945 0,0.0945 -0.0315,0 0.0315,-0.0945 0,-0.0945 -0.0445,0 -0.0547,0.0746 -0.0945,0.0945 -0.0282,0.0141 -0.063,0 -0.0945,0 -0.0945,0 -0.18899,0 -0.28349,0 -0.0791,0 -0.40061,0.018 -0.47247,0 -0.0683,-0.0171 -0.11992,-0.0807 -0.18899,-0.0945 -0.15143,-0.0303 -0.32103,0.0303 -0.47247,0 -0.0977,-0.0195 -0.18898,-0.063 -0.28348,-0.0945 -0.15749,0 -0.31656,0.0223 -0.47247,0 -0.0697,-0.01 -0.11992,-0.0807 -0.18899,-0.0945 -0.0927,-0.0185 -0.19027,0.0155 -0.28348,0 -0.0983,-0.0164 -0.18581,-0.075 -0.28348,-0.0945 -0.2184,-0.0437 -0.44658,-0.0359 -0.66146,-0.0945 -0.1359,-0.0371 -0.24434,-0.14445 -0.37797,-0.18899 -0.15237,-0.0508 -0.31543,-0.0608 -0.47248,-0.0945 -0.28395,-0.0608 -0.56872,-0.11855 -0.85044,-0.18899 -0.34841,-0.0871 -0.69412,-0.18481 -1.03944,-0.28348 -0.31619,-0.0903 -0.62591,-0.20372 -0.94494,-0.28348 -0.18587,-0.0465 -0.38212,-0.0441 -0.56696,-0.0945 -0.16365,-0.0446 -0.31057,-0.1384 -0.47247,-0.18899 -0.34279,-0.10712 -0.69296,-0.18899 -1.03944,-0.28348 -0.34647,-0.0945 -0.69193,-0.19283 -1.03943,-0.28349 -0.37699,-0.0983 -0.76015,-0.17354 -1.13393,-0.28348 -0.16273,-0.0479 -0.31306,-0.13102 -0.47247,-0.18898 -0.36159,-0.13149 -1.23017,-0.39834 -1.5119,-0.47248 -0.62324,-0.164 -1.25921,-0.25184 -1.88989,-0.37797 -0.31498,-0.063 -0.63456,-0.10622 -0.94494,-0.18899 -0.16389,-0.0437 -0.30882,-0.14436 -0.47247,-0.18899 -0.18484,-0.0504 -0.37828,-0.0612 -0.56696,-0.0945 -0.3468,-0.0612 -0.69411,-0.11993 -1.03943,-0.18899 -0.12735,-0.0255 -0.24891,-0.0801 -0.37798,-0.0945 -0.15653,-0.0174 -0.31752,0.0282 -0.47247,0 -0.196,-0.0356 -0.37117,-0.15228 -0.56696,-0.18899 -1.59632,-0.29931 -0.38229,-2.7e-4 -1.41742,-0.0945 -0.1908,-0.0173 -0.37668,-0.0721 -0.56696,-0.0945 -0.34552,-0.0406 -0.69421,-0.0513 -1.03943,-0.0945 -0.15937,-0.0199 -0.31218,-0.0845 -0.47248,-0.0945 -0.50298,-0.0314 -1.00793,0 -1.5119,0 -0.18899,0 -0.37875,0.0171 -0.56696,0 -0.15995,-0.0145 -0.31218,-0.0845 -0.47248,-0.0945 -0.3458,-0.0216 -0.69295,0 -1.03943,0 -0.15749,0 -0.31576,-0.0157 -0.47247,0 -0.15981,0.016 -0.31221,0.0838 -0.47247,0.0945 -0.31428,0.021 -0.62996,0 -0.94494,0 -0.15749,0 -0.31563,-0.0143 -0.47247,0 -0.19081,0.0174 -0.37616,0.0772 -0.56697,0.0945 -0.15684,0.0143 -0.31576,-0.0157 -0.47246,0 -0.15982,0.016 -0.31431,0.0666 -0.47247,0.0945 -2.87554,0.50745 -0.21534,-0.005 -1.51191,0.28348 -0.31892,0.0709 -1.25204,0.23624 -1.41741,0.28348 -0.13544,0.0387 -0.24434,0.14445 -0.37798,0.18899 -0.53883,0.17961 -0.36597,0.007 -0.85044,0.18899 -0.1319,0.0495 -0.24608,0.13953 -0.37798,0.18899 -0.48447,0.18168 -0.31161,0.009 -0.85045,0.18899 -0.13363,0.0445 -0.2485,0.1335 -0.37797,0.18898 -0.99219,0.42523 0.85045,-0.47247 -0.85045,0.28349 -0.10378,0.0461 -0.18488,0.13264 -0.28348,0.18899 -0.1223,0.0699 -0.26077,0.11085 -0.37798,0.18898 -0.0741,0.0494 -0.11771,0.13554 -0.18898,0.18899 -0.29827,0.2237 -0.11798,-0.071 -0.47247,0.28348 -0.0498,0.0498 -0.0447,0.13919 -0.0945,0.18899 -0.0223,0.0223 -0.0722,-0.0223 -0.0945,0 -0.0223,0.0223 0.0141,0.0663 0,0.0945 -0.0199,0.0399 -0.063,0.063 -0.0945,0.0945 0,0.063 0.0199,0.12922 0,0.18899 -0.0141,0.0423 -0.0746,0.0547 -0.0945,0.0945 -0.0282,0.0563 0.0282,0.13264 0,0.18899 -0.0199,0.0398 -0.0804,0.0522 -0.0945,0.0945 -0.0174,0.0523 0,0.47181 0,0.56697 0,0.0494 -0.0124,0.35313 0,0.37797 0.0199,0.0399 0.0746,0.0547 0.0945,0.0945 0.0378,0.0756 -0.0378,0.20788 0,0.28348 0.0199,0.0398 0.0746,0.0547 0.0945,0.0945 0.0282,0.0563 -0.0282,0.13265 0,0.18899 0.0199,0.0398 0.0746,0.0546 0.0945,0.0945 0.0141,0.0282 -0.0141,0.0663 0,0.0945 0.0199,0.0398 0.0698,0.0574 0.0945,0.0945 0.0391,0.0586 0.0554,0.13039 0.0945,0.18899 0.0494,0.0741 0.12599,0.12599 0.18898,0.18899 0.063,0.063 0.126,0.12599 0.18899,0.18899 0.0315,0.0315 0.0547,0.0746 0.0945,0.0945 0.0282,0.0141 0.0663,-0.0141 0.0945,0 0.0398,0.0199 0.0589,0.0678 0.0945,0.0945 0.0909,0.0681 0.1861,0.13055 0.28348,0.18898 0.41284,0.2477 -0.0684,-0.0814 0.47248,0.18899 0.0636,0.0318 0.3546,0.25991 0.47247,0.28348 0.0927,0.0185 0.19082,-0.0185 0.28348,0 0.13813,0.0276 0.24132,0.15483 0.37797,0.18899 0.18588,0.0465 0.37909,0.0569 0.56697,0.0945 0.12735,0.0255 0.24941,0.0761 0.37797,0.0945 0.0935,0.0134 0.18994,-0.0134 0.28349,0 1.22711,0.30678 -0.30303,-0.0433 0.66146,0.0945 0.12856,0.0184 0.24941,0.0761 0.37797,0.0945 0.21827,0.0312 0.44268,-0.0274 0.66146,0 0.12887,0.0161 0.2489,0.0802 0.37798,0.0945 0.15652,0.0174 0.31498,0 0.47247,0 0.31498,0 0.62996,0 0.94494,0 0.15749,0 0.31562,-0.0143 0.47247,0 0.1908,0.0174 0.37566,0.0839 0.56696,0.0945 0.3774,0.0209 0.75595,0 1.13393,0 0.40947,0 0.81895,0 1.22842,0 0.18899,0 0.37853,-0.0145 0.56697,0 1.57587,0.12122 -0.17843,0.0945 1.22842,0.0945 0.94494,0 1.88988,0 2.83482,0 0.25199,0 0.50397,0 0.75595,0 0.25199,0 0.50446,-0.0157 0.75595,0 0.25346,0.0159 0.50245,0.0796 0.75596,0.0945 0.28299,0.0166 0.56696,0 0.85044,0 0.81895,0 1.6379,0 2.45685,0 0.31498,0 0.62996,0 0.94494,0 0.31498,0 0.63035,-0.0157 0.94494,0 0.31616,0.0158 0.62855,0.0843 0.94494,0.0945 0.66111,0.0213 1.32292,0 1.98438,0 1.82688,0 3.65377,0 5.48065,0 1.22842,0 2.45685,0 3.68527,0 0.85045,0 1.70103,0.0155 2.55134,0 0.88236,-0.016 1.76342,-0.0817 2.64583,-0.0945 2.13907,-0.031 4.28507,0 6.4256,0 1.63789,0 3.27642,-0.0455 4.91369,0 1.07237,0.0298 2.14122,0.13797 3.21279,0.18899 0.91296,0.0435 1.82755,0.0477 2.74033,0.0945 0.31614,0.0162 0.62916,0.0725 0.94494,0.0945 1.03882,0.0725 2.08071,0.10068 3.1183,0.18899 0.44385,0.0378 0.87968,0.14466 1.32292,0.18899 0.18805,0.0188 0.37876,-0.0171 0.56697,0 0.15995,0.0146 0.3143,0.0666 0.47247,0.0945 0.37735,0.0666 0.75595,0.12599 1.13393,0.18899"
        />
</svg>
